{"title":"Death of a Salesman(1966)MPEG-4(720p)[DaScubaDude]","uid":13141085,"size":1072354561,"categoryP":"video","categoryS":"movies","magnet":"?xt=urn:btih:00d9db63bb7d271a25049798dd3f781610bdcc76&amp;dn=Death+of+a+Salesman%281966%29MPEG-4%28720p%29%5BDaScubaDude%5D&amp;tr=udp%3A%2F%2Ftracker.leechers-paradise.org%3A6969&amp;tr=udp%3A%2F%2Fzer0day.ch%3A1337&amp;tr=udp%3A%2F%2Fopen.demonii.com%3A1337&amp;tr=udp%3A%2F%2Ftracker.coppersurfer.tk%3A6969&amp;tr=udp%3A%2F%2Fexodus.desync.com%3A6969","seeders":1,"leechers":0,"uploader":"dascuba","files":1,"time":1451980104,"description":"An abridged award-winning TV adaptation of a famous play about an aging traveling salesman who's on the verge of a nervous breakdown. His job is gone and his family hates him for never being there. He tries mending things with them.\r\nDirector: Alex Segal\r\nWriter: Arthur Miller (play)\r\nStars: Stanley Adams, Edward Andrews, Lee J. Cobb \r\n\r\nGeneral\r\nComplete name                            :Death of a SalesmanDEATH_OF_A_SALESMAN_Title2.mp4\r\nFormat                                   : MPEG-4\r\nFormat profile                           : Base Media\r\nCodec ID                                 : isom\r\nFile size                                : 1 023 MiB\r\nDuration                                 : 1h 47mn\r\nOverall bit rate                         : 1 331 Kbps\r\nMovie name                               : DEATH_OF_A_SALESMAN\r\nGenre                                    : Drama\r\nWriting application                      : Lavf54.6.100\r\n\r\nVideo\r\nID                                       : 1\r\nFormat                                   : AVC\r\nFormat/Info                              : Advanced Video Codec\r\nFormat profile                           :   \r\nFormat settings, CABAC                   : No\r\nFormat settings, ReFrames                : 6 frames\r\nCodec ID                                 : avc1\r\nCodec ID/Info                            : Advanced Video Coding\r\nDuration                                 : 1h 47mn\r\nBit rate                                 : 1 204 Kbps\r\nWidth                                    : 720 pixels\r\nHeight                                   : 540 pixels\r\nDisplay aspect ratio                     : 4:3\r\nFrame rate mode                          : Constant\r\nFrame rate                               : 29.970 fps\r\nColor space                              : YUV\r\nChroma subsampling                       : 4:2:0\r\nBit depth                                : 8 bits\r\nScan type                                : Progressive\r\nBits/(Pixel*Frame)                       : 0.103\r\nStream size                              : 925 MiB (90%)\r\n\r\nAudio\r\nID                                       : 2\r\nFormat                                   : AAC\r\nFormat/Info                              : Advanced Audio Codec\r\nFormat profile                           : LC\r\nCodec ID                                 : 40\r\nDuration                                 : 1h 47mn\r\nBit rate mode                            : Constant\r\nBit rate                                 : 121 Kbps\r\nChannel(s)                               : 2 channels\r\nChannel(s)_Original                      : 1 channel\r\nChannel positions                        : Front: C\r\nSampling rate                            : 44.1 KHz\r\nCompression mode                         : Lossy\r\nStream size                              : 92.9 MiB (9%)","torrent":{"xt":"urn:btih:00d9db63bb7d271a25049798dd3f781610bdcc76","amp;dn":"Death+of+a+Salesman%281966%29MPEG-4%28720p%29%5BDaScubaDude%5D","amp;tr":["udp%3A%2F%2Ftracker.leechers-paradise.org%3A6969","udp%3A%2F%2Fzer0day.ch%3A1337","udp%3A%2F%2Fopen.demonii.com%3A1337","udp%3A%2F%2Ftracker.coppersurfer.tk%3A6969","udp%3A%2F%2Fexodus.desync.com%3A6969"],"infoHash":"00d9db63bb7d271a25049798dd3f781610bdcc76","infoHashBuffer":{"type":"Buffer","data":[0,217,219,99,187,125,39,26,37,4,151,152,221,63,120,22,16,189,204,118]},"announce":[],"urlList":[]}}